<svg width="19" height="19" viewBox="0 0 19 19" fill="none" xmlns="http://www.w3.org/2000/svg">
<mask id="path-1-inside-1_31_59" fill="white">
<path d="M0 3C0 1.34315 1.34315 0 3 0H16C17.6569 0 19 1.34315 19 3V16C19 17.6569 17.6569 19 16 19H3C1.34315 19 0 17.6569 0 16V3Z"/>
</mask>
<path d="M0 3C0 1.34315 1.34315 0 3 0H16C17.6569 0 19 1.34315 19 3V16C19 17.6569 17.6569 19 16 19H3C1.34315 19 0 17.6569 0 16V3Z" fill="white"/>
<path d="M3 2H16V-2H3V2ZM17 3V16H21V3H17ZM16 17H3V21H16V17ZM2 16V3H-2V16H2ZM3 17C2.44772 17 2 16.5523 2 16H-2C-2 18.7614 0.238576 21 3 21V17ZM17 16C17 16.5523 16.5523 17 16 17V21C18.7614 21 21 18.7614 21 16H17ZM16 2C16.5523 2 17 2.44772 17 3H21C21 0.238576 18.7614 -2 16 -2V2ZM3 -2C0.238576 -2 -2 0.238576 -2 3H2C2 2.44772 2.44772 2 3 2V-2Z" fill="#FFDA00" mask="url(#path-1-inside-1_31_59)"/>
<path d="M0 3C0 1.34315 1.34315 0 3 0H16C17.6569 0 19 1.34315 19 3V16C19 17.6569 17.6569 19 16 19H3C1.34315 19 0 17.6569 0 16V3Z" fill="#4553CF"/>
<line x1="3.12132" y1="9" x2="8" y2="13.8787" stroke="#FFDA00" stroke-width="3" stroke-linecap="round"/>
<line x1="15.8684" y1="6.12132" x2="8.12131" y2="13.8684" stroke="#FFDA00" stroke-width="3" stroke-linecap="round"/>
</svg>
