<svg width="492" height="70" viewBox="0 0 492 70" fill="none" xmlns="http://www.w3.org/2000/svg">
<path d="M288.063 1.00001H317.184C317.455 0.999046 317.723 1.06118 317.963 1.18093C318.203 1.30069 318.408 1.47436 318.559 1.68658C318.711 1.8988 318.805 2.14303 318.833 2.39765C318.861 2.65227 318.822 2.90943 318.719 3.14639L308.585 26.7966C308.485 27.0336 308.448 27.2901 308.477 27.5437C308.506 27.7974 308.6 28.0405 308.752 28.252C308.903 28.4635 309.107 28.637 309.345 28.7574C309.584 28.8778 309.85 28.9415 310.121 28.9429H319.333C319.662 28.9402 319.984 29.03 320.259 29.2009C320.533 29.3719 320.747 29.6161 320.873 29.9024C321 30.1887 321.032 30.504 320.967 30.8079C320.902 31.1119 320.743 31.3906 320.509 31.6085L283.986 69.5445C283.735 69.7813 283.409 69.9353 283.057 69.9837C282.706 70.0321 282.347 69.9722 282.034 69.813C281.721 69.6538 281.471 69.4038 281.321 69.1001C281.171 68.7963 281.129 68.455 281.201 68.1269L286.496 30.8098C286.543 30.5838 286.536 30.3508 286.476 30.1275C286.417 29.9042 286.305 29.696 286.151 29.5178C285.996 29.3395 285.802 29.1956 285.581 29.0963C285.361 28.9969 285.12 28.9446 284.876 28.9429H277.654C277.384 28.9432 277.118 28.8811 276.879 28.7618C276.64 28.6426 276.436 28.47 276.284 28.2591C276.133 28.0483 276.038 27.8056 276.009 27.5523C275.981 27.2991 276.018 27.043 276.118 26.8065L286.528 2.00831C286.648 1.71514 286.858 1.46253 287.132 1.28288C287.406 1.10322 287.73 1.00472 288.063 1.00001Z" fill="#4553CF"/>
<path d="M284.053 1.07141e-06H313.173C313.443 -0.000297726 313.709 0.061905 313.948 0.181171C314.187 0.300437 314.391 0.47312 314.543 0.684083C314.694 0.895045 314.789 1.13784 314.818 1.39121C314.846 1.64457 314.809 1.90077 314.709 2.13733L304.585 25.7778C304.485 26.0149 304.448 26.2715 304.477 26.5253C304.506 26.779 304.6 27.0222 304.752 27.2338C304.903 27.4454 305.107 27.619 305.345 27.7395C305.584 27.8599 305.85 27.9236 306.121 27.9251H315.344C315.672 27.9243 315.993 28.0156 316.265 28.1874C316.538 28.3592 316.751 28.6037 316.875 28.8897C317 29.1757 317.032 29.4902 316.967 29.7934C316.902 30.0965 316.742 30.3744 316.509 30.5918L279.986 68.5444C279.735 68.7812 279.409 68.9353 279.057 68.9837C278.706 69.0321 278.347 68.9722 278.034 68.8129C277.721 68.6537 277.471 68.4035 277.321 68.0997C277.171 67.7958 277.129 67.4544 277.201 67.1261L282.496 29.7928C282.543 29.5666 282.536 29.3336 282.476 29.1102C282.417 28.8867 282.305 28.6785 282.151 28.5002C281.996 28.3218 281.802 28.1779 281.581 28.0785C281.361 27.9791 281.12 27.9267 280.876 27.9251H273.654C273.384 27.9254 273.118 27.8632 272.879 27.7439C272.64 27.6247 272.436 27.452 272.284 27.241C272.133 27.0301 272.038 26.7873 272.01 26.5339C271.981 26.2805 272.018 26.0243 272.118 25.7878L282.528 0.978774C282.651 0.691873 282.862 0.44583 283.133 0.27165C283.404 0.0974687 283.724 0.00294935 284.053 1.07141e-06V1.07141e-06Z" fill="#FFDA00"/>
<path d="M338.806 47H345.456V25.65H354.276V21.45C354.276 20.12 353.191 19 351.826 19H329.986V25.65H338.806V47ZM354.288 47H361.218L363.913 41.225H373.888L376.583 47H383.443L383.513 46.965L371.123 20.47C370.738 19.63 369.898 19.035 368.883 19.035C367.868 19.035 366.993 19.665 366.643 20.54L366.608 20.575L354.288 47ZM366.853 34.96L368.918 30.515L370.948 34.96H366.853ZM386.998 47.175H395.678C400.263 47.175 404.183 42.59 404.043 37.97H404.008C404.043 37.935 404.043 37.935 404.043 37.9C404.043 36.885 403.833 35.94 403.518 35.03C402.398 31.845 399.773 29.92 395.643 29.92H395.398C393.823 29.92 392.563 29.255 392.493 27.715V27.435C392.563 25.86 393.893 25.44 395.468 25.44H404.043L403.973 21.555C403.973 20.225 402.853 19.105 401.523 19.105H395.328C390.743 19.105 386.998 22.85 386.998 27.435V27.54C386.998 28.555 387.173 29.535 387.523 30.41C388.783 33.56 391.793 35.345 395.398 35.345H395.643C397.253 35.345 398.338 36.185 398.408 37.725V38.005C398.338 39.545 397.148 40.49 395.573 40.49H386.998V47.175ZM408.415 47H415.1V39.405L422.695 47H431.9L417.97 33.07L432.04 19H422.835L415.1 26.735V21.45C415.1 20.085 414.015 19 412.65 19H408.415V47ZM436.422 47.175H445.102C449.687 47.175 453.607 42.59 453.467 37.97H453.432C453.467 37.935 453.467 37.935 453.467 37.9C453.467 36.885 453.257 35.94 452.942 35.03C451.822 31.845 449.197 29.92 445.067 29.92H444.822C443.247 29.92 441.987 29.255 441.917 27.715V27.435C441.987 25.86 443.317 25.44 444.892 25.44H453.467L453.397 21.555C453.397 20.225 452.277 19.105 450.947 19.105H444.752C440.167 19.105 436.422 22.85 436.422 27.435V27.54C436.422 28.555 436.597 29.535 436.947 30.41C438.207 33.56 441.217 35.345 444.822 35.345H445.067C446.677 35.345 447.762 36.185 447.832 37.725V38.005C447.762 39.545 446.572 40.49 444.997 40.49H436.422V47.175Z" fill="#4553CF"/>
<path d="M39.334 47H55.749V40.315H46.019V21.415C46.019 20.085 44.934 19 43.569 19H39.334V47ZM60.1152 47H66.8002V21.45C66.8002 20.085 65.6802 19 64.3502 19H60.1152V47ZM85.1689 47C86.7439 47 88.2489 46.755 89.6489 46.265C89.8939 46.195 90.1039 46.125 90.3139 46.02H90.3839V45.985L90.9439 45.775C91.0839 45.705 91.2589 45.635 91.3989 45.53C91.7139 45.39 92.0289 45.215 92.3089 45.04L92.7289 44.795L93.5689 44.235C94.0939 43.815 94.6189 43.36 95.0739 42.905L95.1089 42.87C96.3689 41.61 97.0339 39.895 97.0339 38.11V35.45C97.0339 34.12 95.9489 33.035 94.5839 33.035H90.3839V38.18L89.8589 38.67L89.2989 39.09H89.2639C89.0189 39.265 88.7739 39.405 88.4939 39.545C88.2839 39.65 88.1089 39.755 87.8989 39.825C87.6189 39.93 87.3039 40.035 87.0239 40.105C86.4289 40.245 85.7989 40.35 85.1689 40.35C84.5389 40.35 83.9089 40.245 83.3489 40.105C83.0339 40.035 82.7189 39.93 82.4389 39.825C82.2289 39.755 82.0539 39.65 81.8789 39.545C81.5989 39.405 81.3189 39.265 81.0739 39.09L80.7589 38.88L80.6889 38.81C80.5489 38.705 80.4439 38.6 80.3389 38.53C78.7989 37.165 77.8189 35.205 77.8189 33C77.8189 30.795 78.7989 28.8 80.3389 27.47V27.435C80.4439 27.365 80.5489 27.26 80.6889 27.19V27.155H80.7239C80.7239 27.12 80.7589 27.12 80.7589 27.12L81.0739 26.91C81.1439 26.84 81.2489 26.77 81.3189 26.735L81.5289 26.63L81.6339 26.525L81.8789 26.42C82.0539 26.315 82.2289 26.245 82.4389 26.175L82.7189 26.07C82.7889 26.035 82.8939 26 82.9639 26L83.0689 25.93C83.1739 25.93 83.2439 25.895 83.3489 25.86C83.9089 25.72 84.5389 25.65 85.1689 25.65C85.7989 25.65 86.4289 25.72 87.0239 25.86C87.0939 25.895 87.1989 25.93 87.2689 25.93C87.3039 25.965 87.3389 25.965 87.4089 26C87.4789 26 87.5489 26.035 87.6189 26.07L87.8989 26.175C88.1089 26.245 88.2839 26.315 88.4939 26.42L88.7739 26.595L88.9839 26.7C89.0889 26.77 89.1939 26.84 89.2639 26.91H89.2989C89.6839 27.155 90.0339 27.47 90.3839 27.785L95.0739 23.095C94.6189 22.605 94.0939 22.185 93.5689 21.765C93.2889 21.555 93.0089 21.38 92.7289 21.205C92.1689 20.82 91.5739 20.505 90.9439 20.225C90.7339 20.12 90.5239 20.05 90.3139 19.945L89.6489 19.735C88.2489 19.245 86.7439 19 85.1689 19C83.5939 19 82.0889 19.245 80.6889 19.735L80.0239 19.945C79.8139 20.05 79.6039 20.12 79.3939 20.225C78.7989 20.505 78.2039 20.82 77.6089 21.205C77.3289 21.38 77.0489 21.555 76.8039 21.765C76.2439 22.185 75.7539 22.605 75.2639 23.095C72.7439 25.615 71.1689 29.115 71.1689 33C71.1689 36.85 72.7439 40.35 75.2639 42.905C75.7539 43.36 76.2439 43.815 76.8039 44.235C77.0489 44.41 77.3289 44.62 77.6089 44.795C77.7489 44.9 77.9239 44.97 78.0639 45.075L78.9389 45.53L79.3939 45.775C79.6039 45.845 79.8139 45.95 80.0239 46.02C80.2339 46.125 80.4789 46.195 80.6889 46.265C82.0889 46.755 83.5939 47 85.1689 47ZM101.404 47H108.089V36.325H118.939V47H125.624V21.45C125.624 20.085 124.504 19 123.174 19H118.939V29.675H108.089V21.45C108.089 20.085 107.004 19 105.639 19H101.404V47ZM138.812 47H145.462V25.65H154.282V21.45C154.282 20.12 153.197 19 151.832 19H129.992V25.65H138.812V47ZM158.655 47H165.305V29.5L180.355 47H187.075V21.45C187.075 20.085 185.99 19 184.625 19H180.425V36.885L165.76 19.84C165.305 19.315 164.605 19 163.905 19H158.655V47ZM192.322 47H199.007V21.45C199.007 20.085 197.887 19 196.557 19H192.322V47ZM204.251 47H210.901V29.5L225.951 47H232.671V21.45C232.671 20.085 231.586 19 230.221 19H226.021V36.885L211.356 19.84C210.901 19.315 210.201 19 209.501 19H204.251V47ZM251.043 47C252.618 47 254.123 46.755 255.523 46.265C255.768 46.195 255.978 46.125 256.188 46.02H256.258V45.985L256.818 45.775C256.958 45.705 257.133 45.635 257.273 45.53C257.588 45.39 257.903 45.215 258.183 45.04L258.603 44.795L259.443 44.235C259.968 43.815 260.493 43.36 260.948 42.905L260.983 42.87C262.243 41.61 262.908 39.895 262.908 38.11V35.45C262.908 34.12 261.823 33.035 260.458 33.035H256.258V38.18L255.733 38.67L255.173 39.09H255.138C254.893 39.265 254.648 39.405 254.368 39.545C254.158 39.65 253.983 39.755 253.773 39.825C253.493 39.93 253.178 40.035 252.898 40.105C252.303 40.245 251.673 40.35 251.043 40.35C250.413 40.35 249.783 40.245 249.223 40.105C248.908 40.035 248.593 39.93 248.313 39.825C248.103 39.755 247.928 39.65 247.753 39.545C247.473 39.405 247.193 39.265 246.948 39.09L246.633 38.88L246.563 38.81C246.423 38.705 246.318 38.6 246.213 38.53C244.673 37.165 243.693 35.205 243.693 33C243.693 30.795 244.673 28.8 246.213 27.47V27.435C246.318 27.365 246.423 27.26 246.563 27.19V27.155H246.598C246.598 27.12 246.633 27.12 246.633 27.12L246.948 26.91C247.018 26.84 247.123 26.77 247.193 26.735L247.403 26.63L247.508 26.525L247.753 26.42C247.928 26.315 248.103 26.245 248.313 26.175L248.593 26.07C248.663 26.035 248.768 26 248.838 26L248.943 25.93C249.048 25.93 249.118 25.895 249.223 25.86C249.783 25.72 250.413 25.65 251.043 25.65C251.673 25.65 252.303 25.72 252.898 25.86C252.968 25.895 253.073 25.93 253.143 25.93C253.178 25.965 253.213 25.965 253.283 26C253.353 26 253.423 26.035 253.493 26.07L253.773 26.175C253.983 26.245 254.158 26.315 254.368 26.42L254.648 26.595L254.858 26.7C254.963 26.77 255.068 26.84 255.138 26.91H255.173C255.558 27.155 255.908 27.47 256.258 27.785L260.948 23.095C260.493 22.605 259.968 22.185 259.443 21.765C259.163 21.555 258.883 21.38 258.603 21.205C258.043 20.82 257.448 20.505 256.818 20.225C256.608 20.12 256.398 20.05 256.188 19.945L255.523 19.735C254.123 19.245 252.618 19 251.043 19C249.468 19 247.963 19.245 246.563 19.735L245.898 19.945C245.688 20.05 245.478 20.12 245.268 20.225C244.673 20.505 244.078 20.82 243.483 21.205C243.203 21.38 242.923 21.555 242.678 21.765C242.118 22.185 241.628 22.605 241.138 23.095C238.618 25.615 237.043 29.115 237.043 33C237.043 36.85 238.618 40.35 241.138 42.905C241.628 43.36 242.118 43.815 242.678 44.235C242.923 44.41 243.203 44.62 243.483 44.795C243.623 44.9 243.798 44.97 243.938 45.075L244.813 45.53L245.268 45.775C245.478 45.845 245.688 45.95 245.898 46.02C246.108 46.125 246.353 46.195 246.563 46.265C247.963 46.755 249.468 47 251.043 47Z" fill="#4553CF"/>
</svg>
