<svg width="49" height="70" viewBox="0 0 49 70" fill="none" xmlns="http://www.w3.org/2000/svg">
<path d="M16.0632 1.00001H45.1837C45.4552 0.999046 45.7228 1.06118 45.9627 1.18093C46.2027 1.30069 46.4077 1.47436 46.5595 1.68658C46.7113 1.8988 46.8053 2.14303 46.8331 2.39765C46.861 2.65227 46.8218 2.90943 46.7192 3.14639L36.5852 26.7966C36.4852 27.0336 36.4481 27.2901 36.4772 27.5437C36.5062 27.7974 36.6005 28.0405 36.7518 28.252C36.9031 28.4635 37.1068 28.637 37.3454 28.7574C37.5839 28.8778 37.85 28.9415 38.1206 28.9429H47.3333C47.6622 28.9402 47.9844 29.03 48.2588 29.2009C48.5332 29.3719 48.7472 29.6161 48.8734 29.9024C48.9997 30.1887 49.0324 30.504 48.9674 30.8079C48.9025 31.1119 48.7428 31.3906 48.5088 31.6085L11.9863 69.5445C11.7348 69.7813 11.4091 69.9353 11.0574 69.9837C10.7057 70.0321 10.3468 69.9722 10.0341 69.813C9.72136 69.6538 9.47143 69.4038 9.3214 69.1001C9.17137 68.7963 9.12924 68.455 9.20128 68.1269L14.4959 30.8098C14.5426 30.5838 14.5359 30.3508 14.4762 30.1275C14.4166 29.9042 14.3055 29.696 14.1508 29.5178C13.9961 29.3395 13.8017 29.1956 13.5813 29.0963C13.3609 28.9969 13.12 28.9446 12.8758 28.9429H5.65389C5.38371 28.9432 5.11756 28.8811 4.8788 28.7618C4.64003 28.6426 4.43593 28.47 4.28438 28.2591C4.13282 28.0483 4.03843 27.8056 4.0095 27.5523C3.98057 27.2991 4.01798 27.043 4.11843 26.8065L14.5277 2.00831C14.6479 1.71514 14.8584 1.46253 15.1319 1.28288C15.4055 1.10322 15.7298 1.00472 16.0632 1.00001Z" fill="#4553CF"/>
<path d="M12.0526 1.07141e-06H41.1732C41.4433 -0.000297726 41.7095 0.061905 41.9482 0.181171C42.187 0.300437 42.3911 0.47312 42.5426 0.684083C42.6942 0.895045 42.7886 1.13784 42.8175 1.39121C42.8465 1.64457 42.809 1.90077 42.7086 2.13733L32.5852 25.7778C32.4853 26.0149 32.4482 26.2715 32.4772 26.5253C32.5062 26.779 32.6005 27.0222 32.7518 27.2338C32.9031 27.4454 33.1068 27.619 33.3454 27.7395C33.5839 27.8599 33.8501 27.9236 34.1207 27.9251H43.344C43.6719 27.9243 43.9927 28.0156 44.2654 28.1874C44.5382 28.3592 44.7505 28.6037 44.8754 28.8897C45.0004 29.1757 45.0322 29.4902 44.9669 29.7934C44.9016 30.0965 44.7421 30.3744 44.5088 30.5918L7.98625 68.5444C7.73478 68.7812 7.40904 68.9353 7.05736 68.9837C6.70568 69.0321 6.34681 68.9722 6.03407 68.8129C5.72134 68.6537 5.47141 68.4035 5.32138 68.0997C5.17135 67.7958 5.12925 67.4544 5.20129 67.1261L10.4959 29.7928C10.5426 29.5666 10.5359 29.3336 10.4762 29.1102C10.4166 28.8867 10.3055 28.6785 10.1508 28.5002C9.9961 28.3218 9.80164 28.1779 9.58127 28.0785C9.3609 27.9791 9.12004 27.9267 8.87578 27.9251H1.65387C1.38368 27.9254 1.11753 27.8632 0.878768 27.7439C0.640004 27.6247 0.435902 27.452 0.284348 27.241C0.132793 27.0301 0.0384314 26.7873 0.00950032 26.5339C-0.0194308 26.2805 0.0179525 26.0243 0.118405 25.7878L10.5277 0.978774C10.651 0.691873 10.8617 0.44583 11.133 0.27165C11.4044 0.0974686 11.7243 0.00294935 12.0526 1.07141e-06Z" fill="#FFDA00"/>
</svg>
