<svg width="25" height="25" viewBox="0 0 25 25" fill="none" xmlns="http://www.w3.org/2000/svg">
<rect x="0.5" y="0.5" width="24" height="24" rx="5.5" stroke="#4553CF"/>
<path d="M7.5 9.5H17.5V18C17.5 19.3807 16.3807 20.5 15 20.5H10C8.61929 20.5 7.5 19.3807 7.5 18V9.5Z" stroke="#4553CF"/>
<rect x="6.25" y="7.25" width="12.5" height="0.5" rx="0.25" fill="#D9D9D9" stroke="#4553CF" stroke-width="0.5" stroke-linejoin="round"/>
<path d="M10 5C10 4.44772 10.4477 4 11 4H14C14.5523 4 15 4.44772 15 5H10Z" fill="#4553CF"/>
<rect x="9" y="11" width="1" height="8" fill="#4553CF"/>
<rect x="11" y="11" width="1" height="8" fill="#4553CF"/>
<rect x="13" y="11" width="1" height="8" fill="#4553CF"/>
<rect x="15" y="11" width="1" height="8" fill="#4553CF"/>
<path d="M10 5H11V5.5C11 5.77614 10.7761 6 10.5 6C10.2239 6 10 5.77614 10 5.5V5Z" fill="#4553CF"/>
<path d="M14 5H15V5.5C15 5.77614 14.7761 6 14.5 6C14.2239 6 14 5.77614 14 5.5V5Z" fill="#4553CF"/>
</svg>
