<svg width="20" height="21" viewBox="0 0 20 21" fill="none" xmlns="http://www.w3.org/2000/svg">
<path d="M19.6743 13.4129C19.1966 15.1958 18.2493 16.8159 16.9368 18.0949C15.6242 19.374 13.9971 20.2625 12.2345 20.6627C10.4719 21.0629 8.64208 20.9593 6.94626 20.3633C5.25044 19.7673 3.75434 18.7021 2.6225 17.2846C1.49067 15.8672 0.766953 14.1525 0.530953 12.3292C0.294954 10.5059 0.555815 8.64465 1.28484 6.95008C2.01387 5.25551 3.18283 3.79331 4.66314 2.7243C6.14345 1.6553 7.87776 1.0209 9.67533 0.89089L9.61789 1.93037C9.29047 7.8555 13.7577 12.9563 19.6743 13.4129Z" fill="#FFDA00"/>
</svg>
